<?xml version="1.0" encoding="UTF-8"?>
<svg id="Layer_1" data-name="Layer 1" xmlns="http://www.w3.org/2000/svg" viewBox="0 0 1254 1254">
  <path d="M747.909,409.384l-.155,387.578-272.727.052-.922-14.255.005-293.27,104.273-.086-.049-96.159,154.491-.003.601,9.228,7.603.397.094,5.792,6.786.725ZM571.369,613.873l-.06-19.967-9.788-.245-.606-6.017-7.066-.044-.027-7.582,7.181-.216.468-6.209,9.902-.07-.051-20.399-17.4.002-.369,10.86-8.325.258.018,9.381-10.014-.401-.084-9.31-8.281-.092-.256-10.755-17.454.144.07,20.328,8.826.094.544,5.593,8.193.022-.49,8.369-7.509.391-.764,5.661-8.804.307.012,19.832,17.554-.152-.042-10.423,8.295.061.19-9.305,9.937-.346.481,9.396,7.974.489.261,10.236,17.482.113ZM699.682,613.761l.091-19.755-9.32-.366-.496-6.205-7.752-.151-.258-7.596,7.975-.048.51-5.958,9.234-.498.042-20.118-17.652.146-.083,10.706-7.898.376-.472,9.296-10.776-.271-.137-9.171-8.437-.071-.176-10.957-17.168.007-.079,20.23,8.908.393.343,5.484h8.217s-.096,8.504-.096,8.504l-8.129-.092-.187,6.034-9.02.145.042,19.881,17.102-.004.174-10.449,8.577-.264.031-9.257,10.95.11.247,9.314,8.004.172.022,10.357,17.668.074ZM606.579,708.652l9.427.484-.006-33.752,37.784.153.147,15.036,9.266.432.179,7.326,18.397.355.217,9.753,17.594-.062.259-10.054-13.068-.247-.074-13.246-10.65-.456-.088-9.035-8.053-.307-.346-10.267h-122.151s-.339,10.314-.339,10.314l-9.879.147-.111,9.288-11.032.114.004,13.568-14.861.087.164,10.183,17.465-.105.343-9.598,18.552-.454.405-7.61,15.248.381.062,17.517,9.593-.15.062,10.693,35.532.056-.042-10.545Z"/>
  <path d="M150.998,564.373l.146-16.778,16.655-.285.279-15.04,14.994-.26.093-14.043,12.063-.172.379-14.089,13.949-.12.423-14.292,14.772-.483.07-18.818,16.045-.365.305-13.724,12.934-.039-.063-16.506,16.016-.072.121-19.337,16.647-.007-.01-21.57,50.415.004,1.741,3.978,9.556.474v214.265s34.314.045,34.314.045l1.828,3.766,9.842.504.061,62.928-45.947.106-.258,112.545-52.591.046-.701-12.171-8.261.007.012-100.453-143.368.049-1.11-8.803-8.397-.515-.102-110.182,17.149-.592ZM223.95,580.254l-14.123-.229.02,13.762-15.874-.079-.15,23.47,93.004-.101-.008-99.078-16.553-.057-.332,16.08-16.232.254.094,13.729-14.897.083.154,16.177-15.158-.131.056,16.121Z"/>
  <path d="M826.753,564.964l16.404-.422.529-17.062,16.351-.114.184-15.231,14.614-.199-.045-13.932,13.032-.202.004-14.022,14.766-.194.283-14.397,13.881-.306.065-19.11,15.001-.009v-13.94s13.952-.005,13.952-.005l.044-16.295,15.884-.41-.003-19.058,16.433-.344.186-21.262,49.326-.096c.411.864,1.74,3.588,2.653,3.7l9.079,1.118-.022,213.8,36.213.207,1.57,3.906,10.183.149-.088,63.15-47.866.113-.003,112.5-53.032.053-.544-4.28c-.128-1.008-2.451-1.398-3.901-2.025l3.938-1.607c1.084-.443-.84-4.519-1.319-4.414l-6.345.067.014-100.368h-142.853s-.332-8.608-.332-8.608l-8.221-.687-.015-110.164ZM916.138,580.33l-13.082-.401-.019,13.825-16.791.004-.162,23.416,92.066-.092.049-99.061-16.459-.166-.028,16.259-15.948-.15-.254,14.111-14.634-.208.083,16.358-14.902-.092.083,16.196Z"/>
  <path d="M503.041,448.926l.15-9.229,10.195-.503.405-9.238,7.227-.512.312-9.003c1.594.001,4.856.414,4.977-.617l.615-5.253,8.971-.344.114-11.257,10.538-.381.088-9.309,22.049.125-.031,85.493-94.335-.007-.233-9.154,9.188-.465.195-10.251,9.502-.224.294-9.767,9.78-.103Z"/>
  <path d="M384.599,932.374l.037-9.004-25.06.008-.549-7.275-7.21-.152-.191-16.526,7.472-.663.235-8.089,38.302-.209.041,44.027-6.87.46-.527,6.45-30.802.059-.13-9.084,25.25-.002ZM364.591,899.528v14.606h20.252v-14.606h-20.252Z"/>
  <path d="M279.495,906.208l-.238,7.913-25.591.013-.151,17.908-12.571-.079-.007-56.516,38.071-.052.776,8.59,6.943.197.165,21.598-7.398.428ZM253.363,884.251l-.009,19.89,20.934.009.009-19.89-20.934-.009Z"/>
  <path d="M945.815,923.208v-24.204s7.79-.217,7.79-.217l.264-8.102,24.267-.214.044-14.896,12.823-.191v56.619s-37.168,0-37.168,0l-.232-8.498-7.789-.298ZM978.11,899.425h-19.346v23.661h19.346v-23.661Z"/>
  <path d="M296.183,923.183l.26-8.797,7.652-.466.096-7.98,24.536-.161v-6.098s-24.515-.217-24.515-.217l.232-8.897,29.655.02.195,8.244,7.464.243-.065,32.937-37.274.107-.366-8.814-7.87-.121ZM328.944,914.071l-19.641.011.005,8.991,19.641-.011-.005-8.991Z"/>
  <path d="M445.241,922.925l.008,9.126-30.215.045-.302-8.593-7.689-.466.005-24.037,7.789-.333.071-8.203,30.267.148.563,7.988,7.457.517-.038,15.029-32.971-.019-.158,8.908,25.213-.108ZM440.638,899.528h-20.583v6.417h20.583v-6.417Z"/>
  <polygon points="546.695 932.18 546.628 899.593 526.571 899.601 526.666 931.893 513.76 931.987 513.763 890.611 551.647 890.447 552.269 898.877 559.569 899.012 559.596 931.683 546.695 932.18"/>
  <path d="M607.199,932.108l-30.012-.114-.009-8.448-7.952-.473.003-24.055,7.735-.171.546-8.337,29.555.1.459,8.013,7.683.414.046,24.081-7.772.382-.282,8.607ZM602.291,899.528h-20.291v23.472h20.291v-23.472Z"/>
  <path d="M818.817,932.002l-30.135.002-.477-8.523-7.73-.284-.005-24.23,7.58-.147.147-8.204,30.356-.06.441,8.265,7.407.234.207,24.041-7.68.287-.113,8.62ZM793.424,899.238l-.073,23.746,20.321.062.073-23.746-20.321-.062Z"/>
  <polygon points="836.329 923.359 836.144 890.929 848.748 890.573 848.886 922.989 868.778 923.037 868.835 890.841 881.329 890.41 881.391 931.868 843.903 932.098 843.728 923.308 836.329 923.359"/>
  <polygon points="923.681 932.076 923.594 899.619 903.425 899.487 903.349 931.723 891.095 932.021 891.038 890.633 928.316 890.494 929.031 898.327 936.229 899.087 936.266 931.8 923.681 932.076"/>
  <polygon points="754.136 931.898 741.582 931.99 741.297 903.332 732.439 903.362 732.455 894.242 741.256 893.936 741.355 884.47 747.718 883.867 748.308 875.477 771.602 875.477 771.926 884.228 754.136 884.365 753.941 894.138 766.266 894.116 766.231 903.243 754.08 903.473 754.136 931.898"/>
  <polygon points="654.529 931.692 641.812 932.097 641.833 899.786 627.94 899.221 627.835 890.774 641.685 890.413 641.901 875.449 654.595 875.42 654.824 890.476 669.086 890.469 669.143 899.446 654.796 899.421 654.529 931.692"/>
  <rect x="571.984" y="675.362" width="34.323" height="33.472"/>
</svg>