<?xml version="1.0" encoding="UTF-8"?>
<svg id="Layer_1" data-name="Layer 1" xmlns="http://www.w3.org/2000/svg" viewBox="0 0 1254 1254">
  <defs>
    <style>
      .cls-1 {
        fill: #fff;
      }
    </style>
  </defs>
  <path class="cls-1" d="M747.947,408.687l-.168,388.089-272.736.135-1.102-14.167v-293.858s104.304-.122,104.304-.122l-.073-96.238,154.568.007.736,9.099,7.492.484.202,5.779,6.777.791ZM571.246,613.313l-.073-19.815-9.872-.331-.473-5.943-7.208-.076.372-7.631,6.887-.385.421-6.016,9.942-.139-.079-20.325-17.269-.017-.451,10.824-8.331.426-.01,9.201-10.038-.263-.069-9.394-8.198-.114-.434-10.702-17.331.157.072,20.25,8.792.101.628,5.557,8.137.12-.465,8.229-7.326.669-1.083,5.533-8.656.298.04,19.84,17.51-.199-.077-10.355,8.252-.01.338-9.327,9.872-.325.455,9.42,7.985.41.36,10.368,17.382-.036ZM699.677,613.196l-.012-19.606-9.364-.448-.389-6.12-7.819-.169-.186-7.638,7.98-.136.43-5.882,9.302-.581.045-19.951-17.621.075-.085,10.595-7.922.579-.4,9.249-10.896-.387-.171-9.092-8.434-.039-.158-11.015-17.095.022-.07,20.218,8.911.358.337,5.529,8.191.072-.1,8.496-8.115-.119-.171,6.001-9.035.167.069,19.871,17.037-.02.125-10.352,8.545-.358.214-9.306,10.834.173.375,9.341,7.963.136.027,10.419,17.658-.084ZM606.493,708.584l9.401.177-.006-33.738,37.874.146.139,14.996,9.183.545.228,7.289,18.345.357.39,9.777,17.466-.05.273-10.001-13.07-.365-.105-13.219-10.639-.404-.083-9.016-8.066-.457-.386-10.197h-121.971s-.556,10.368-.556,10.368l-9.824.149-.115,9.261-11.06.182.052,13.557-14.918.059.302,10.181,17.359-.138.33-9.651,18.592-.404.364-7.69,15.265.523.111,17.458,9.606-.161.048,10.741,35.489.012-.023-9.162-1.186-1.143-33.395.029-.028-33.6h34.37s-.184,33.57-.184,33.57l.43.016Z"/>
  <path class="cls-1" d="M826.752,564.746l16.384-.852.598-16.944,16.306-.124.17-15.149,14.583-.35.026-13.899,12.951-.198.18-14.086,14.654-.125.353-14.419,13.85-.424.103-19.046,14.977-.015.018-13.984,13.988-.021-.003-16.238,15.892-.53-.042-18.978,16.476-.391.153-21.241,48.643-.15,3.698,3.693,8.872,1.324-.004,213.902,35.516.227,2.603,3.831,9.793.385-.073,63.168-47.831.086-.007,112.653-53.207.075c-.052-3.305-1.424-5.433-3.464-6.579,1.136-.453,4.03-2.081,3.389-2.862l-2.499-3.045-5.56-.004-.003-100.313-142.636.021-.749-8.688-8.079-.656-.021-110.053ZM916.205,579.875l-13.023-.27-.097,13.68-16.76.071-.141,23.387,92.052-.113.012-99.181-16.344-.135-.017,16.314-15.994-.184-.258,14.156-14.644-.249.066,16.406-14.887-.005.034,16.122Z"/>
  <path class="cls-1" d="M150.646,563.821l.136-16.788,16.577-.248.423-15.043,14.855-.307.258-14.068,12.016-.21.31-14.07,13.955-.098.514-14.278,14.683-.563.15-18.778,16.022-.373.291-13.691,12.959-.192-.035-16.391,15.948-.156.218-19.372,16.597-.043.054-21.518,50.165.018,2.409,3.979,9.142.589v214.375s33.738.124,33.738.124l2.814,3.687,9.495.659.035,62.955-45.969.181-.242,112.707-52.67-.04-.681-12.036-8.277-.182-.003-100.53-143.307.065-1.345-8.843-8.281-.559-.095-110.241,17.143-.721ZM223.716,579.819l-14.094-.18-.085,13.708-15.855.011-.102,23.378,92.953-.098-.008-99.166-16.514-.051-.339,16.106-16.28.294.135,13.673-14.822.167.014,16.177-15.089-.135.085,16.117Z"/>
  <path class="cls-1" d="M502.869,448.267l.149-9.29,10.047-.404.699-9.348,7.081-.499.341-8.562,4.592-.953c.986-.205.7-3.277.727-5.007l9.154-.823.252-11.182,10.34-.336.284-9.394,22.091.202-.041,85.638-94.364.002-.372-9.274,9.198-.363.215-10.348,9.569-.242.224-9.793,9.814-.027Z"/>
  <path class="cls-1" d="M384.227,932.408l.004-8.982-24.99-.035-.414-7.208-7.247-.252-.235-16.494,7.484-.717.29-8.071,38.343-.246-.009,44.224-6.713.447-.775,6.406-30.559.027-.395-9.155,25.216.058ZM384.638,899.583h-20.276v14.551h20.276v-14.551Z"/>
  <path class="cls-1" d="M945.89,923.199l-.009-24.194,7.8-.279.321-8.065,24.209-.28.03-14.821,12.932-.275.018,56.762-37.208.056-.286-8.433-7.805-.47ZM978.181,899.425h-19.291v23.661h19.291v-23.661Z"/>
  <path class="cls-1" d="M279.264,906.18l-.291,7.971-25.465.043-.316,17.925-12.553-.148-.009-56.575,38.15-.119.709,8.433,6.944.508.28,21.601-7.449.361ZM274,884.244h-20.89v19.89h20.89v-19.89Z"/>
  <path class="cls-1" d="M295.902,923.283l.23-8.981,7.671-.37.132-8.039,24.239-.124.133-6.044-24.365-.262.449-8.973,29.521.081.167,8.255,7.505.133-.137,33.121-37.304.1-.356-8.863-7.884-.033ZM309.047,914.126v8.953h19.661v-8.953h-19.661Z"/>
  <path class="cls-1" d="M445.039,922.899l.038,9.245-30.198-.015-.383-8.578-7.681-.522-.002-24.004,7.762-.46.155-8.168,30.206.179.696,7.905,7.455.634-.108,15.084-32.934-.018-.158,8.85,25.152-.129ZM440.417,899.583h-20.528v6.307h20.528v-6.307Z"/>
  <path class="cls-1" d="M607.1,932.146l-30.025-.068-.07-8.422-7.96-.633.006-24.006,7.772-.238.627-8.334,29.226.102.914,7.979,7.59.517.01,24.003-7.734.507-.356,8.593ZM602.181,899.583h-20.236v23.417h20.236v-23.417Z"/>
  <polygon class="cls-1" points="546.568 932.211 546.523 899.705 526.454 899.615 526.571 931.988 513.576 931.995 513.589 890.591 551.511 890.356 552.186 898.784 559.493 899.07 559.441 931.768 546.568 932.211"/>
  <path class="cls-1" d="M818.891,932.075l-30.125.012-.606-8.556-7.734-.279-.006-24.358,7.572-.088.182-8.186,30.305-.136.642,8.276,7.322.343.28,23.965-7.716.342-.117,8.665ZM793.424,899.219l-.066,23.775,20.355.056.066-23.775-20.355-.056Z"/>
  <polygon class="cls-1" points="836.337 923.386 836.132 890.92 848.799 890.539 848.984 923.003 868.806 923.004 868.88 890.838 881.368 890.309 881.499 931.858 844.017 932.205 843.651 923.415 836.337 923.386"/>
  <polygon class="cls-1" points="923.753 932.145 923.692 899.724 903.5 899.465 903.445 931.665 891.126 932.076 891.053 890.634 928.427 890.402 929.155 898.146 936.371 899.137 936.345 931.847 923.753 932.145"/>
  <polygon class="cls-1" points="754.128 931.921 741.564 932.034 741.204 903.339 732.402 903.391 732.367 894.298 741.128 893.855 741.376 884.466 747.676 883.762 748.358 875.371 771.59 875.37 771.976 884.204 754.14 884.345 753.971 894.084 766.235 894.063 766.216 903.255 754.135 903.462 754.128 931.921"/>
  <polygon class="cls-1" points="654.529 931.485 641.712 932.207 641.794 899.87 627.888 899.187 627.778 890.779 641.588 890.344 641.795 875.434 654.467 875.276 654.865 890.428 669.036 890.364 669.099 899.415 654.791 899.376 654.529 931.485"/>
</svg>