<?xml version="1.0" encoding="UTF-8"?>
<svg id="Layer_1" data-name="Layer 1" xmlns="http://www.w3.org/2000/svg" viewBox="0 0 1254 1254">
  <path d="M853.579,1070.838l-99.305.051.03,31.56-252.701-.016-.046-31.55-81.77-.002-.068-32.026-61.667.065.03-35.015-49.605.036-.113-37.768-40.026-.058-.027-44.475-38.964-.101-.04-44.728h-37.603s-.102-47.525-.102-47.525l-33.154-.055-.07-103.869-32.825-.082.01-234.19,32.842-.125.037-93.628,33.108-.037-.109-57.013,33.161.061.242-46.736,41.204-.069-.014-43.576,41.526-.163.052-41.876,43.924.005.037-37.921,68.171-.033-.016-34.498,30.475-.248,239.585.193,25.266.104v38.545s40.076-.016,40.076-.016l.099,102.317,34.861.217.074,40.204h42.18s.081,39.897.081,39.897l38.823.071-.024,81.346,32.734.005.003,29.818,85.778-.059.019,35.395,60.404-.1.075-14.126,39.654.007.058,41.975,39.604.12-.019,251.837-34.103.146-.084,75.396-37.891.061.04,63.06-37.03-.044-.135,44.52-39.39-.006-.006,37.782-68.989.036.02,34.943h-58.293s-.094,31.963-.094,31.963ZM744.715,1026.729l105.887-.018.129-35.828,51.564-.031.106-32.147,73.782-.056-.099-44.581,32.489-.157-.018-76.256,40.331-.068.043-76.087,37.12-.137-.029-184.782-35.849.083-.002-32.566-93.177.238.003-34.988-87.28-.015.173-36.094-37.532-.143-.016-73.21-18.348-.042.029-39.005-65.623-.038-.051-43.693-36.005.029.009-99.862-35.473-.092-.035-38.31-251.793.013-.075,36.948-67.927.03.01,38.268-38.001.017-.03,44.258-42.72.075-.082,44.984-37.391.145.091,57.746-32.757.306.012,92.207-33.004.002.13,123.074-.023,71.115,32.889.133.034,109.432,32.663.079-.068,63.357,38.548.117.05,49.139,47.763.03.04,48.333,46.242-.04.07,32.268,49.609-.056-.038,35.851,89.302.027.156,32.375,233.779-.006.391-32.371Z"/>
  <polygon points="970.589 308.123 926.551 308.187 926.46 264.44 966.119 264.366 966.089 229.903 1003.866 229.924 1003.92 270.451 970.656 270.39 970.589 308.123"/>
  <rect x="1026.532" y="324.357" width="39.756" height="38.869" transform="translate(699.5965 1389.2043) rotate(-89.8345)"/>
  <path d="M379.358,573.621l-77.433.07-.01-31.735-30.908-.032.062-74.045,30.783-.103.043-33.778,77.421-.072-.042,33.921,32.036.086.028,73.879-32.054.094.073,31.715ZM336.976,502.014l-.178-33.674-31.45-.015.084,33.752,31.544-.062Z"/>
  <path d="M768.755,667.334l-76.967.062-.143-31.581-30.676-.047-.028-71.614,30.427-.046.096-33.027,77.276-.074.04,33.085,31.613.019-.073,71.604-31.565.128v31.491ZM696.253,564.521l-.019,33.089,31.74.018.019-33.089-31.74-.018Z"/>
  <path d="M775.619,970.606l-74.984-.002-.103-31.316-30.177-.073.027-70.808,30.144-.029-.056-31.107,75.178.051.02,31.084,31.358.004.024,70.648-31.34.251-.089,31.297ZM736.425,868.717h-31.37v32.669h31.37v-32.669Z"/>
  <polygon points="365.692 820.032 303.069 820.073 303.076 789.932 271.558 789.725 271.603 727.519 303.067 727.337 303.088 696.759 365.63 696.784 365.708 727.391 396.848 727.455 396.901 789.857 365.682 789.837 365.692 820.032"/>
  <polygon points="551.946 375.844 508.743 375.86 508.591 347.463 473.872 347.349 473.846 282.075 508.655 281.951 508.636 245.367 551.934 245.229 551.97 282.047 585.083 282.032 585.071 343.559 551.911 343.666 551.946 375.844"/>
  <polygon points="570.257 571.461 523.61 571.602 523.608 520.36 553.197 520.306 553.135 496.561 591.735 496.488 591.763 548.614 570.455 548.681 570.257 571.461"/>
  <polygon points="992.938 739.47 948.488 739.594 948.482 692.156 976.395 691.958 976.144 665.383 1017.697 665.238 1017.812 716.55 992.801 716.579 992.938 739.47"/>
  <polygon points="546.313 975.108 501.521 975.226 501.506 931.083 529.773 930.817 529.925 904.068 570.598 904.075 570.603 950.752 546.456 950.841 546.313 975.108"/>
  <polygon points="459.343 693.253 459.294 668.838 430.126 668.933 430.086 633.007 494.401 633.008 494.433 693.232 459.343 693.253"/>
  <polygon points="849.795 789.83 849.734 767.256 823.548 767.439 823.619 734.47 883.159 734.483 883.159 789.858 849.795 789.83"/>
  <rect x="912.068" y="598.848" width="33.56" height="34.304"/>
  <rect x="240.236" y="615.921" width="33.638" height="34.22"/>
  <rect x="462.274" y="837.598" width="33.802" height="34.584" transform="translate(-.961 .54)"/>
  <rect x="642.088" y="399.124" width="33.913" height="33.701" transform="translate(242.8613 1074.888) rotate(-89.982)"/>
  <rect x="563.989" y="761.444" width="34.069" height="33.945" transform="translate(-197.5411 1359.2423) rotate(-89.9854)"/>
  <rect x="916.468" y="886.313" width="33.7" height="33.435" transform="translate(29.7215 1835.8011) rotate(-89.9653)"/>
  <polygon points="384.584 388.583 351.529 388.634 351.578 355.356 384.553 355.278 384.584 388.583"/>
</svg>