<?xml version="1.0" encoding="UTF-8"?>
<svg id="Layer_1" data-name="Layer 1" xmlns="http://www.w3.org/2000/svg" viewBox="0 0 462.221 308.264">
  <defs>
    <style>
      .cls-1 {
        fill: #231f20;
      }
    </style>
  </defs>
  <path class="cls-1" d="M388.076,163.006l36.896.028.232-18.092,37.008-.003.009,54.628-18.425-.068-.193,18.05-36.734-.028-.132,18.197h-18.383s-.037,18.103-.037,18.103l-55.442.082-.037,17.951-18.452.098-.016,36.193-55.524.12-.118-18.172-36.918-.053-.053-18.051-18.15-.073-.143,18.128-36.837.038-.08,18.137-55.488.017-.214-18.04-18.235-.187-.034,18.222-73.973.003.008-72.437-18.613-.234.006-90.465,18.608-.33-.008-126.493,18.234-.107L37.049.048l18.558-.03v18.224s18.576-.084,18.576-.084l.04,18.004,18.38.186.016,18.036h36.745s.008-18.056.008-18.056l18.409-.096.145-17.993,18.357-.017.181-18.223,18.52.062.068,18.243,18.468-.286.011,18.185,18.51.068-.031,18.051,18.493.112.025,18.256,18.395-.106-.006,18.027,18.509.076-.005,18.095,18.409-.06.192,18.132h18.352s.003,17.974.003,17.974l18.541.216-.01,54.336,36.663.005.109-18.145,18.304-.056.092-18.179ZM73.959,72.563l-.019-18.047-18.385.083-.194-18.155-18.079.027-.081,54.118,18.227.114.096-18.066,18.434-.075ZM221.758,72.7l-18.365.032-.154-18.22-18.437.038-.026-18.175-18.235.047-.025,36.189,18.446.018.09,18.091,36.745-.068-.038-17.952ZM73.948,163.23h-18.339v54.228h18.339v-54.228ZM184.799,163.167h-18.276v54.291h18.276v-54.291Z"/>
</svg>