<?xml version="1.0" encoding="UTF-8"?>
<svg id="Layer_1" data-name="Layer 1" xmlns="http://www.w3.org/2000/svg" viewBox="0 0 735 635">
  <path d="M552.977,313.513l36.872.058.054-18.074,36.723-.015.035,54.361-18.333-.108-.151,18.034-36.752.005-.044,18.129-18.452.032.053,18.027-55.295.05-.015,17.942-18.451.102-.02,36.098-55.275.085.016-18.113h-36.851s-.081-18.105-.081-18.105l-18.269.012-.113,18.087-36.763-.024-.077,18.118-55.154-.004-.178-18.028-18.368-.101-.086,18.144-73.659-.015.007-72.25-18.485-.142.003-90.207,18.477-.245.027-126.392,18.305.036.133-18.151,18.307.052.087,18.114,18.405-.063.014,17.987,18.449.15-.011,17.991,36.791.011.003-18.016,18.452-.109.034-17.937,18.396.013.079-18.163,18.339.009.063,18.222,18.44-.271.003,18.112,18.444.064-.009,18.056,18.448.043.054,18.173,18.321-.09.007,17.989,18.418.071.028,18.083,18.383-.037.161,18.176,18.272-.079.011,17.937,18.504.293-.018,54.141,36.707.027.177-18.153,18.347.024.063-18.167ZM239.63,223.194l-.014-18.139-18.417.087-.138-18.163-18.285.008-.017,54.195,18.35.104.073-18.018,18.449-.075ZM387.067,223.229l-18.398.006-.043-18.131h-18.441s-.058-18.178-.058-18.178l-18.318.052-.035,36.234,18.35.01.134,18.088,36.814-.085-.004-17.996ZM221.152,313.526l-.028,54.315,18.486.009.028-54.315-18.486-.009ZM350.187,313.411h-18.402v54.435h18.402v-54.435Z"/>
</svg>